<?xml version="1.0" standalone="no"?><!DOCTYPE svg PUBLIC "-//W3C//DTD SVG 1.1//EN" "http://www.w3.org/Graphics/SVG/1.1/DTD/svg11.dtd"><svg class="icon" width="200px" height="200.00px" viewBox="0 0 1024 1024" version="1.1" xmlns="http://www.w3.org/2000/svg"><path d="M0 0h1024v1024H0z" fill="#FFFFFF" /><path d="M160 80c-44.112 0-80 35.888-80 80v704c0 44.112 35.888 80 80 80h704c44.112 0 80-35.888 80-80V160c0-44.112-35.888-80-80-80H160m0-80h704c88.366 0 160 71.634 160 160v704c0 88.366-71.634 160-160 160H160c-88.366 0-160-71.634-160-160V160C0 71.634 71.634 0 160 0z" fill="#707070" /><path d="M316 472h392a12 12 0 0 1 12 12v56a12 12 0 0 1-12 12H316a12 12 0 0 1-12-12v-56a12 12 0 0 1 12-12z" fill="#707070" /><path d="M552 316v392a12 12 0 0 1-12 12h-56a12 12 0 0 1-12-12V316a12 12 0 0 1 12-12h56a12 12 0 0 1 12 12z" fill="#707070" /></svg>