<?xml version="1.0" standalone="no"?><!DOCTYPE svg PUBLIC "-//W3C//DTD SVG 1.1//EN" "http://www.w3.org/Graphics/SVG/1.1/DTD/svg11.dtd"><svg class="icon" width="200px" height="200.00px" viewBox="0 0 1024 1024" version="1.1" xmlns="http://www.w3.org/2000/svg"><path fill="#cdcdcd" d="M349.5232 104.0768c9.3712 9.3728 9.3712 24.5696 0 33.9424l-105.5824 105.5808 76.8592 76.8592 100.536-100.536c9.3712-9.3728 24.568-9.3728 33.9408 0 9.3728 9.3728 9.3728 24.5696 0 33.9408L354.7408 354.4l121.1296 121.1296C520.3072 438.368 577.5408 416 640 416c141.3856 0 256 114.6144 256 256s-114.6144 256-256 256-256-114.6144-256-256c0-61.6416 21.7872-118.1952 58.08-162.3792L135.2112 202.752c-9.3728-9.3728-9.3728-24.5696 0-33.9408 9.3712-9.3728 24.568-9.3728 33.9408 0l40.8448 40.8448 105.584-105.5808c9.3712-9.3712 24.568-9.3712 33.9408 0zM640 464c-114.8752 0-208 93.1248-208 208s93.1248 208 208 208 208-93.1248 208-208-93.1248-208-208-208z"  /></svg>