<?xml version="1.0" standalone="no"?><!DOCTYPE svg PUBLIC "-//W3C//DTD SVG 1.1//EN" "http://www.w3.org/Graphics/SVG/1.1/DTD/svg11.dtd"><svg t="1754466395007" class="icon" viewBox="0 0 1024 1024" version="1.1" xmlns="http://www.w3.org/2000/svg" p-id="10112" xmlns:xlink="http://www.w3.org/1999/xlink" width="200" height="200"><path d="M367.232 461.44a50.816 50.816 0 1 1-101.632 0 50.816 50.816 0 0 1 101.632 0zM524.288 359.808a50.816 50.816 0 1 1-101.632 0 50.816 50.816 0 0 1 101.632 0zM700.16 321.728a50.816 50.816 0 1 1-101.568 0 50.816 50.816 0 0 1 101.568 0z" p-id="10113" fill="#ffffff"></path><path d="M915.84 329.344a32 32 0 0 1-7.68 44.608L549.44 627.072a12.8 12.8 0 0 1-5.12 2.176l-44.16 7.68a12.8 12.8 0 0 1-13.44-18.944l22.08-39.04a12.8 12.8 0 0 1 3.776-4.16l358.656-253.12a32 32 0 0 1 44.608 7.68z" p-id="10114" fill="#ffffff"></path><path d="M785.28 271.424C716.416 215.424 615.936 189.44 516.032 201.6c-199.808 24.32-374.208 163.968-367.872 396.608 0.64 24.192 11.136 37.76 26.432 45.632 17.088 8.704 43.776 11.52 76.16 3.712 20.352-4.928 40-4.096 57.472 4.864 17.024 8.64 27.648 22.848 34.56 36.096 6.72 13.056 11.072 27.52 14.336 40.064 1.728 6.784 3.008 12.16 4.224 17.28 1.408 5.888 2.688 11.264 4.48 17.6 3.136 11.328 18.176 27.584 51.008 41.6a282.304 282.304 0 0 0 106.176 20.928c189.44 0 331.2-156.8 351.168-327.68a32 32 0 1 1 63.616 7.424c-23.104 197.12-187.264 384.256-414.784 384.256a346.24 346.24 0 0 1-131.328-26.048c-37.44-16-76.288-42.752-87.552-83.328-1.792-6.4-3.84-14.72-5.632-22.4l-3.328-13.504a132.096 132.096 0 0 0-9.216-26.752c-3.328-6.336-5.76-8.064-6.848-8.576-0.512-0.256-3.84-1.92-13.248 0.384-42.176 10.24-85.632 8.832-120.384-8.96-36.672-18.752-59.968-53.952-61.248-100.8-7.488-274.688 201.216-434.88 424.064-461.952 114.624-13.952 233.088 15.36 317.376 83.84a32 32 0 0 1-40.32 49.6z" p-id="10115" fill="#ffffff"></path></svg>