<?xml version="1.0" encoding="UTF-8" standalone="no"?>
<!-- Created with Inkscape (http://www.inkscape.org/) -->

<svg
   width="439.44424"
   height="439.28448"
   viewBox="0 0 116.26962 116.22736"
   version="1.1"
   id="svg1"
   xml:space="preserve"
   xmlns:xlink="http://www.w3.org/1999/xlink"
   xmlns="http://www.w3.org/2000/svg"
   xmlns:svg="http://www.w3.org/2000/svg"><defs
     id="defs1"><linearGradient
       id="swatch54"><stop
         style="stop-color:#000000;stop-opacity:1;"
         offset="0"
         id="stop54" /></linearGradient><linearGradient
       id="swatch53"><stop
         style="stop-color:#000000;stop-opacity:1;"
         offset="0"
         id="stop53" /></linearGradient><linearGradient
       id="swatch52"><stop
         style="stop-color:#000000;stop-opacity:1;"
         offset="0"
         id="stop52" /></linearGradient><linearGradient
       id="swatch19"><stop
         style="stop-color:#f8d5e1;stop-opacity:1;"
         offset="0"
         id="stop19" /></linearGradient><linearGradient
       xlink:href="#swatch19"
       id="linearGradient54"
       x1="266.64648"
       y1="50.490757"
       x2="287.43494"
       y2="50.490757"
       gradientUnits="userSpaceOnUse" /></defs><g
     id="layer1"
     transform="translate(-8.0110211,-8.0321585)"><g
       id="g2"
       transform="translate(-167.96442,6.8176013)"><path
         style="display:inline;fill:#fdfdfd"
         d="m 240.91752,117.0809 c 1.81812,-0.21676 4.56347,-0.68177 6.10079,-1.03337 1.53731,-0.3516 4.15424,-1.09076 5.8154,-1.64258 1.66115,-0.55181 4.74913,-1.86125 6.86217,-2.90986 2.11304,-1.04861 5.0049,-2.68605 6.42635,-3.63877 1.42145,-0.95271 3.50504,-2.47859 4.63021,-3.39083 1.12516,-0.91224 3.12097,-2.73383 4.43512,-4.04799 1.31416,-1.314155 3.13575,-3.309962 4.048,-4.435125 0.91224,-1.125163 2.43811,-3.208757 3.39082,-4.630208 0.95272,-1.421452 2.59016,-4.313308 3.63877,-6.426347 1.04861,-2.11304 2.35805,-5.201017 2.90986,-6.862172 0.55182,-1.661156 1.29098,-4.278087 1.64258,-5.815402 0.3516,-1.537316 0.81661,-4.282671 1.03337,-6.10079 0.21676,-1.818119 0.3941,-4.888671 0.3941,-6.823449 0,-1.934778 -0.12555,-4.673945 -0.27901,-6.087038 -0.15345,-1.413093 -0.57296,-4.038175 -0.93225,-5.833517 -0.35928,-1.795341 -1.13336,-4.712372 -1.72016,-6.482291 -0.58681,-1.769919 -1.94317,-5.003972 -3.01415,-7.186784 -1.07098,-2.182813 -2.72726,-5.134147 -3.68062,-6.558521 -0.95336,-1.424374 -2.47843,-3.507968 -3.38906,-4.630208 -0.91062,-1.122241 -2.85634,-3.231063 -4.32382,-4.686271 -1.46748,-1.455208 -3.86432,-3.562295 -5.32631,-4.682414 -1.46199,-1.120119 -3.71716,-2.681565 -5.0115,-3.4698804 -1.29433,-0.7883149 -3.332,-1.9252021 -4.52815,-2.526416 -1.19615,-0.6012139 -3.38014,-1.573314 -4.8533,-2.1602224 -1.47317,-0.5869084 -3.91036,-1.4130071 -5.41597,-1.8357749 -1.50561,-0.4227677 -4.26271,-1.0398762 -6.1269,-1.371352 -2.89686,-0.5151004 -4.29299,-0.6020994 -9.60713,-0.5986644 -4.68093,0.00303 -6.87166,0.1170761 -8.86354,0.4614418 -1.45521,0.2515825 -4.03089,0.8074809 -5.72374,1.2353298 -1.69285,0.4278489 -4.49082,1.3233768 -6.21771,1.990062 -1.72689,0.6666852 -4.47202,1.9112052 -6.10028,2.7655999 -1.62827,0.8543947 -3.94999,2.2127009 -5.15938,3.0184586 -1.20939,0.805757 -3.20996,2.273247 -4.44572,3.261089 -1.23575,0.987842 -3.37887,2.935225 -4.7625,4.327518 -1.38362,1.392293 -3.28958,3.514796 -4.23546,4.716673 -0.94589,1.201877 -2.40786,3.217884 -3.24883,4.480016 -0.84097,1.262132 -2.16979,3.544942 -2.95294,5.072911 -0.78314,1.527968 -1.91425,4.009614 -2.51356,5.514767 -0.59932,1.505153 -1.43557,3.968505 -1.85834,5.474115 -0.42277,1.50561 -1.04106,4.262715 -1.37398,6.1269 -0.51737,2.89699 -0.60531,4.292771 -0.60531,9.607134 0,5.314363 0.0879,6.710144 0.60531,9.607135 0.33292,1.864184 0.95121,4.621289 1.37398,6.126899 0.42277,1.50561 1.24836,3.941523 1.83465,5.413139 0.58629,1.471616 1.61478,3.768392 2.28554,5.103947 0.67075,1.335555 1.70446,3.208463 2.29712,4.162018 0.59265,0.953555 2.07493,3.073273 3.29393,4.710484 1.21901,1.63721 3.42979,4.20008 4.91284,5.69526 1.48306,1.49519 3.61466,3.46358 4.7369,4.3742 1.12224,0.91062 3.20583,2.4357 4.63021,3.38906 1.42437,0.95336 4.37571,2.60964 6.55852,3.68062 2.18281,1.07097 5.41686,2.42734 7.18678,3.01415 1.76992,0.5868 4.68695,1.36334 6.48229,1.72563 1.79535,0.36229 4.21676,0.76623 5.38093,0.89765 1.16416,0.13141 3.90333,0.2545 6.08704,0.27353 2.1837,0.019 5.45792,-0.14274 7.27604,-0.35949 z"
         id="path10"
         transform="translate(1.1458334e-6)" /><path
         id="path11"
         style="fill:#fdfdfd"
         d="m 227.37837,85.337702 c -0.16336,-0.358536 -0.72636,-0.948287 -1.2511,-1.310558 -0.52475,-0.362271 -1.48986,-0.894499 -2.14471,-1.182728 -0.65484,-0.28823 -2.26218,-0.834592 -3.57187,-1.214138 -1.30969,-0.379546 -3.83966,-0.927366 -5.62216,-1.217377 -1.78251,-0.290012 -5.05672,-0.639074 -7.27605,-0.775693 -2.21932,-0.136619 -4.3661,-0.251505 -4.77063,-0.255302 l -0.73551,-0.0069 0.074,-3.349956 0.074,-3.349956 6.6075,-1.823219 c 3.63412,-1.00277 6.69873,-1.965837 6.81024,-2.140148 0.11151,-0.174311 0.14766,-0.467158 0.0803,-0.650772 -0.0673,-0.183614 -0.37134,-1.394188 -0.6756,-2.690166 -0.30426,-1.295977 -0.69442,-2.408331 -0.86701,-2.471896 -0.17259,-0.06357 -2.81412,0.580262 -5.87005,1.430728 -3.05594,0.850466 -5.70508,1.547502 -5.88698,1.548969 -0.2603,0.0021 -0.33073,-2.87105 -0.33073,-13.491084 V 38.893752 l 2.57968,0.02104 c 1.41883,0.01157 3.58003,0.104062 4.80266,0.205534 1.70749,0.141713 2.30568,0.101776 2.57968,-0.172229 0.27019,-0.270187 0.35673,-1.407399 0.35673,-4.687835 0,-2.382112 0.0893,-4.384862 0.19843,-4.450557 0.10914,-0.06569 2.21499,-0.017 4.67966,0.108215 2.46468,0.125214 5.79843,0.421165 7.40834,0.657669 1.60991,0.236504 4.25521,0.765047 5.87845,1.174542 1.62324,0.409494 3.94496,1.232711 5.15938,1.829371 1.21441,0.59666 2.53442,1.292314 2.93335,1.545898 0.59148,0.375986 0.81118,0.400811 1.19062,0.134538 0.25592,-0.179589 0.9687,-0.635851 1.58396,-1.013917 0.61526,-0.378065 2.22261,-1.081456 3.57188,-1.56309 1.34927,-0.481634 3.67896,-1.129233 5.1771,-1.439109 1.49814,-0.309877 4.2961,-0.732951 6.21771,-0.940166 1.9216,-0.207214 4.82062,-0.42789 6.44226,-0.490391 1.62163,-0.0625 3.08666,-0.0282 3.25562,0.07622 0.22873,0.141362 0.30818,5.267641 0.31108,20.070728 0.002,10.934482 -0.0593,19.983064 -0.13645,20.107961 -0.0772,0.124897 -2.09867,0.304319 -4.49218,0.398717 -2.39351,0.0944 -4.66034,0.288925 -5.0374,0.432283 l -0.68556,0.260653 v 3.983602 c 0,2.949187 -0.0859,4.013451 -0.33073,4.098551 -0.1819,0.06322 -2.45859,0.24258 -5.0593,0.398573 -2.60072,0.155994 -6.11306,0.518849 -7.80521,0.806345 -1.69215,0.287496 -4.14449,0.828389 -5.44964,1.201985 -1.30515,0.373596 -3.09109,1.03495 -3.96875,1.469675 -0.87766,0.434725 -1.86159,1.039256 -2.18651,1.343403 -0.32492,0.304146 -0.66037,0.772286 -0.74544,1.040311 -0.12282,0.386977 -0.42456,0.487318 -1.46543,0.487318 -1.13625,0 -1.3503,-0.08679 -1.60777,-0.651882 z m 35.9262,-17.899987 c 0.21229,-0.172608 0.30145,-5.048056 0.31536,-17.245822 0.0107,-9.352852 -0.0817,-17.168677 -0.20515,-17.3685 -0.17892,-0.289501 -0.81771,-0.329376 -3.14412,-0.196269 -1.60577,0.09188 -4.20649,0.355301 -5.77936,0.585389 -1.57288,0.230089 -3.99609,0.695861 -5.38491,1.035048 -1.38883,0.339188 -3.44857,1.001131 -4.57721,1.470984 -1.12864,0.469853 -2.46287,1.241718 -2.96497,1.715255 -0.59678,0.562839 -0.9129,1.104986 -0.9129,1.565643 0,0.387566 0.17544,0.771989 0.38987,0.854272 0.21442,0.08228 1.792,-0.0454 3.50573,-0.283732 1.71372,-0.238336 4.91357,-0.505741 7.11076,-0.594232 2.94669,-0.118677 4.04582,-0.0785 4.18897,0.153116 0.10674,0.172705 0.19523,6.64893 0.19664,14.391612 0.001,7.742682 0.0665,14.181003 0.14458,14.30738 0.0783,0.126666 1.64052,0.144677 3.48137,0.04013 1.83666,-0.104303 3.47256,-0.297929 3.63534,-0.430279 z M 230.40278,43.796043 c 0.76174,-0.505198 2.11182,-1.213499 3.00016,-1.574002 0.88834,-0.360503 2.17217,-0.795714 2.85294,-0.967135 0.73394,-0.184806 1.3518,-0.524738 1.5179,-0.835107 0.15408,-0.287889 0.20823,-0.90676 0.12033,-1.375271 -0.0879,-0.46851 -0.48574,-1.161811 -0.88411,-1.540667 -0.39837,-0.378857 -1.31962,-0.984959 -2.04723,-1.346894 -0.7276,-0.361936 -2.05252,-0.902622 -2.94425,-1.201526 -0.89174,-0.298904 -3.09439,-0.838902 -4.89479,-1.199996 -1.8004,-0.361095 -4.76174,-0.792066 -6.58075,-0.957714 -1.81901,-0.165649 -3.78354,-0.260794 -4.36563,-0.211433 l -1.05833,0.08975 -0.0738,3.498773 c -0.0729,3.455167 -0.0663,3.500343 0.52917,3.624676 0.33162,0.06925 2.15076,0.499759 4.04253,0.956695 1.90274,0.459586 4.41775,1.286752 5.62881,1.851272 1.20408,0.561264 2.50006,1.264976 2.87995,1.563803 0.3799,0.298828 0.73603,0.543323 0.79141,0.543323 0.0554,0 0.72392,-0.413344 1.48567,-0.918542 z" /><path
         id="path52"
         style="font-variation-settings:normal;opacity:1;vector-effect:none;fill:url(#linearGradient54);fill-opacity:0.407217;stroke:#ffffff;stroke-width:0.264583;stroke-linecap:butt;stroke-linejoin:miter;stroke-miterlimit:4;stroke-dasharray:none;stroke-dashoffset:0;stroke-opacity:1;-inkscape-stroke:none;stop-color:#000000;stop-opacity:1"
         d="m 267.24941,54.559306 c 4.46468,-1.03834 11.69237,-3.041037 13.04674,-3.406912 0.95432,-0.257804 0.894,1.613646 1.38235,1.235067 2.16045,-1.67482 4.91973,-4.186014 5.59376,-4.901571 0.16981,-0.180268 -0.30481,-0.549583 -0.91395,-0.80299 -0.60914,-0.253407 -1.35279,-0.390906 -1.72103,-0.107542 -1.68981,1.300325 -3.69912,3.00611 -5.19792,4.224608 -0.45159,0.367136 -0.57326,-1.45754 -1.13947,-1.322917 -3.14821,0.748515 -11.51712,3.266467 -11.51712,3.266467 0,0 -0.0783,1.942528 0.46664,1.81579 z m -4.16489,-0.947573 c -0.0521,-0.337364 -2.39079,0.552886 -2.39079,0.552886 -1.34607,0.366449 -2.86412,0.801089 -3.37344,0.965833 -0.73123,0.236523 -0.95331,0.374303 -0.92176,1.491116 0.037,1.311029 1.1238,0.738748 3.13776,0.192362 0.8119,-0.220266 3.51937,-0.946898 3.52933,-1.179223 0,0 0.0742,-1.664826 0.0189,-2.022974 z m -47.23298,12.475483 c -0.11339,-0.124907 -7.01541,2.158338 -14.26841,4.14774 -7.253,1.989402 -13.81187,3.809996 -14.57586,4.045748 -0.76398,0.235753 -1.38887,0.467592 -1.32113,1.003757 0.11567,0.915427 0.24192,1.214261 1.04983,1.452427 0.17798,0.05247 3.49261,-0.85479 7.34891,-1.908411 3.67905,-1.005192 6.83005,-1.98008 7.24038,-2.235522 -0.14352,0.175432 -0.0599,0.184646 0.30024,0.05529 0.29104,-0.104522 3.38667,-0.974125 6.87917,-1.932699 3.4925,-0.958575 10.32657,-2.944059 10.50706,-3.083198 0.19888,-0.153307 0.19806,-0.630624 0.16434,-0.950329 -0.0348,-0.330002 -0.0858,-0.753589 -0.37052,-0.923975 -0.85018,-0.508729 -2.95401,0.329172 -2.95401,0.329172 z"
         transform="translate(1.1458334e-6)" /><path
         id="path5"
         style="fill:#d4f2ef"
         d="m 184.08047,74.678647 c -0.12827,-0.254661 -0.38788,-1.035083 -0.57692,-1.734269 -0.21868,-0.808831 -0.25165,-1.363292 -0.0907,-1.524287 0.13917,-0.139171 4.1153,-1.323038 8.83584,-2.630815 4.72053,-1.307778 11.49982,-3.193783 15.06508,-4.191124 3.56526,-0.99734 10.33326,-3.044579 10.49968,-2.983794 0.16642,0.06079 0.48801,0.846657 0.71465,1.746383 0.22665,0.899725 0.32861,1.711758 0.22659,1.804517 -0.10201,0.09276 -10.08862,3.14567 -17.65212,5.21862 -7.56351,2.072949 -14.39848,3.991477 -15.18882,4.263394 -0.79034,0.271918 -1.47369,0.494396 -1.51855,0.494396 -0.0448,0 -0.1865,-0.20836 -0.31477,-0.463021 z m 72.18126,-21.223503 c 0,-1.485676 0.0897,-1.89006 0.46302,-2.086789 0.25466,-0.134208 1.61019,-0.555116 3.01229,-0.935351 1.4021,-0.380235 2.80108,-0.691336 3.10886,-0.691336 0.51122,0 0.55958,0.145816 0.55958,1.687395 0,1.036488 -0.12758,1.786512 -0.33073,1.944343 -0.1819,0.141321 -1.71253,0.63215 -3.4014,1.09073 -1.68887,0.45858 -3.14739,0.833782 -3.24115,0.833782 -0.0938,0 -0.17047,-0.829248 -0.17047,-1.842774 z m 10.31875,-2.926274 c 0,-1.68492 0.0556,-1.879502 0.59531,-2.081928 0.32742,-0.122812 2.67891,-0.791092 5.22552,-1.485067 2.54662,-0.693974 4.78173,-1.38126 4.96691,-1.527302 0.18519,-0.146042 0.2668,-0.485781 0.18136,-0.754975 -0.0854,-0.269194 -0.0911,-0.59334 -0.0127,-0.720324 0.0785,-0.126985 1.60421,0.04702 3.39052,0.386683 1.7863,0.33966 3.51978,0.683906 3.85219,0.764992 0.41764,0.10188 0.54026,0.258824 0.39687,0.507983 -0.11412,0.198304 -1.41515,1.445169 -2.89118,2.770811 -1.47603,1.325642 -2.7589,2.410258 -2.85082,2.410258 -0.0919,0 -0.2803,-0.297656 -0.41862,-0.661458 -0.13831,-0.363802 -0.46327,-0.661458 -0.72213,-0.661458 -0.25886,0 -2.85141,0.652758 -5.76124,1.450574 -2.90982,0.797816 -5.43941,1.45266 -5.62131,1.455209 -0.23364,0.0033 -0.33073,-0.54101 -0.33073,-1.853998 z" /><path
         style="fill:#fcf8c0"
         d="m 226.36381,116.25326 c -1.52797,-0.20545 -4.20687,-0.71993 -5.95312,-1.14327 -1.74625,-0.42335 -4.36563,-1.20021 -5.82084,-1.72638 -1.4552,-0.52616 -3.95552,-1.58618 -5.55624,-2.3556 -1.60073,-0.76942 -3.91176,-2.02084 -5.13563,-2.78094 -1.22386,-0.7601 -3.36699,-2.23719 -4.7625,-3.28243 -1.39551,-1.04525 -3.96806,-3.33122 -5.71678,-5.079937 -1.74873,-1.748722 -4.02378,-4.310588 -5.05567,-5.693035 -1.0319,-1.382448 -2.50943,-3.525573 -3.2834,-4.7625 -0.77396,-1.236927 -2.08924,-3.677709 -2.92284,-5.423959 -0.83359,-1.74625 -1.87392,-4.197385 -2.31184,-5.446968 -0.43792,-1.249582 -1.16199,-3.749894 -1.60905,-5.55625 -0.44705,-1.806355 -0.99303,-4.689364 -1.21329,-6.406687 -0.22025,-1.717322 -0.40046,-5.015209 -0.40046,-7.328636 0,-2.313427 0.18021,-5.611314 0.40046,-7.328636 0.22026,-1.717323 0.76624,-4.600332 1.21329,-6.406687 0.44706,-1.806355 1.1675,-4.306668 1.60099,-5.55625 0.43349,-1.249583 1.60745,-3.938843 2.60879,-5.976135 1.00135,-2.037292 2.63078,-4.91535 3.62095,-6.395686 0.99017,-1.480336 2.78626,-3.880407 3.99131,-5.33349 1.20505,-1.453084 2.99247,-3.397056 3.97204,-4.319939 0.97957,-0.922882 2.68591,-2.416367 3.79186,-3.318855 1.10595,-0.902489 3.06927,-2.34888 4.36295,-3.214204 1.29367,-0.865324 3.60201,-2.2319734 5.12964,-3.0369991 1.52763,-0.8050258 4.009,-1.9517118 5.51415,-2.5481911 1.50515,-0.5964793 4.00547,-1.4431164 5.55625,-1.8814157 1.55078,-0.4382993 4.18883,-1.0414146 5.86232,-1.3402562 2.04683,-0.3655116 4.73136,-0.5896589 8.20208,-0.6848419 3.98442,-0.1092711 5.9728,-0.038318 8.73125,0.3115666 1.96453,0.2491831 5.11969,0.8503287 7.01146,1.3358791 1.89177,0.4855505 4.45161,1.2568653 5.68854,1.7140331 1.23693,0.4571677 3.34501,1.3496631 4.68462,1.983323 1.33962,0.63366 3.54227,1.8045861 4.89479,2.6020582 1.35252,0.797472 3.70929,2.381751 5.23726,3.52062 1.52796,1.138869 4.20889,3.502772 5.95761,5.253118 1.74872,1.750346 4.03469,4.324229 5.07994,5.71974 1.04524,1.39551 2.52233,3.538635 3.28243,4.762499 0.7601,1.223864 2.01152,3.534895 2.78094,5.135624 0.76942,1.60073 1.82944,4.101042 2.3556,5.55625 0.52617,1.455209 1.30183,4.074584 1.72371,5.820834 0.42187,1.74625 0.94859,4.580082 1.17049,6.297405 0.22189,1.717322 0.40344,5.015209 0.40344,7.328636 0,2.313427 -0.18311,5.603099 -0.40692,7.310381 -0.2238,1.707283 -0.64662,4.183928 -0.93958,5.503655 -0.29297,1.319728 -1.02373,3.878771 -1.6239,5.686762 -0.60018,1.807991 -1.89334,4.903616 -2.87369,6.879167 -0.98036,1.97555 -2.61414,4.842066 -3.63063,6.370035 -1.01649,1.527968 -2.80176,3.916168 -3.96725,5.307111 -1.1655,1.390942 -3.11246,3.46377 -4.32658,4.606281 -1.21412,1.14252 -3.26112,2.89185 -4.54889,3.8874 -1.28777,0.99556 -3.43089,2.48507 -4.7625,3.31003 -1.3316,0.82496 -3.84985,2.18977 -5.5961,3.03292 -1.74625,0.84315 -4.60375,2.00785 -6.35,2.58821 -1.74625,0.58037 -4.25478,1.29452 -5.5745,1.58701 -1.31973,0.29248 -3.79638,0.7149 -5.50366,0.9387 -1.86678,0.24472 -4.91806,0.39607 -7.65466,0.37971 -2.50278,-0.015 -5.80067,-0.19532 -7.32864,-0.40078 z m 4.78432,-30.462113 c 0.462,-0.716634 1.19075,-1.268926 2.62402,-1.988641 1.0914,-0.54805 3.35359,-1.340318 5.02708,-1.760596 1.67349,-0.420278 4.51302,-0.954253 6.31007,-1.186611 1.79705,-0.232358 4.99243,-0.500853 7.10085,-0.596656 2.75966,-0.125395 3.93815,-0.278847 4.20712,-0.547814 0.28841,-0.288408 0.37363,-1.274513 0.37363,-4.323477 v -3.949851 l 0.7276,-0.02226 c 0.40018,-0.01224 2.52546,-0.101917 4.72284,-0.199274 2.77021,-0.122737 4.12909,-0.288099 4.43177,-0.539302 0.38711,-0.321271 0.43654,-1.222477 0.43654,-7.959737 V 55.11948 l 6.41614,-1.763248 c 3.52888,-0.969787 6.6116,-1.763076 6.85048,-1.762865 0.24246,2.15e-4 0.50768,0.292602 0.60036,0.661843 0.0913,0.363802 0.34395,0.661458 0.56142,0.661458 0.21748,0 1.67373,-1.159473 3.23611,-2.576606 1.56238,-1.417133 2.92805,-2.697055 3.03483,-2.844271 0.10677,-0.147215 0.15672,-0.386727 0.11099,-0.532248 -0.0457,-0.145521 -0.57019,-0.368815 -1.16545,-0.496209 -0.95128,-0.203587 -1.07682,-0.315686 -1.03703,-0.926041 0.045,-0.689691 0.0174,-0.699943 -4.05577,-1.506712 -2.25557,-0.446763 -4.26259,-0.756565 -4.46004,-0.68845 -0.24779,0.08548 -0.31441,0.398575 -0.21507,1.010733 0.0792,0.487788 0.0936,0.886888 0.0321,0.886888 -0.0615,0 -2.10784,0.543061 -4.54743,1.206803 -2.43959,0.663743 -4.64397,1.267078 -4.89863,1.340747 -0.4345,0.125691 -0.46302,-0.418235 -0.46302,-8.829151 0,-7.109418 -0.0739,-9.064173 -0.35739,-9.451848 -0.3321,-0.454171 -0.68312,-0.477273 -4.96094,-0.326485 -2.53195,0.08925 -6.15402,0.396039 -8.04905,0.681757 -1.89502,0.285718 -4.45486,0.777136 -5.68854,1.09204 -1.23367,0.314905 -3.14819,0.921545 -4.25448,1.348089 -1.1063,0.426545 -2.57868,1.151258 -3.27197,1.610475 -1.02202,0.676958 -1.34231,0.776642 -1.69273,0.526838 -0.23771,-0.169456 -1.21776,-0.71802 -2.17788,-1.219032 -0.96013,-0.501012 -2.68654,-1.214102 -3.83646,-1.584646 -1.14993,-0.370543 -3.22187,-0.903338 -4.60431,-1.183989 -1.38245,-0.28065 -3.70417,-0.664235 -5.15938,-0.85241 -1.45521,-0.188175 -4.61036,-0.347614 -7.01146,-0.354308 l -4.36562,-0.01217 -0.13229,4.630208 c -0.081,2.833414 -0.23497,4.625981 -0.39688,4.619316 -0.14552,-0.006 -2.25903,-0.109746 -4.69668,-0.230565 -3.41198,-0.16911 -4.52337,-0.143922 -4.82864,0.109436 -0.34292,0.284595 -0.39655,2.165264 -0.39655,13.904922 0,12.699228 -0.0299,13.584922 -0.46302,13.716859 -0.25467,0.07757 -3.97537,1.10234 -8.26823,2.277258 -4.29287,1.174919 -8.18164,2.256325 -8.64171,2.403125 -0.46007,0.146801 -0.90776,0.452625 -0.99487,0.679611 -0.0871,0.226985 0.086,1.233257 0.38468,2.23616 0.53565,1.798608 0.55552,1.823461 1.45789,1.823461 0.60438,0 0.91484,0.124737 0.91484,0.367564 0,0.202159 0.20836,0.621594 0.46302,0.932077 l 0.46302,0.564514 7.13683,-1.969423 c 3.92526,-1.083182 7.22924,-1.912309 7.34219,-1.842504 0.11295,0.06981 0.20536,1.474532 0.20536,3.121615 0,2.080208 0.10099,3.074376 0.33073,3.255623 0.1819,0.143509 2.11666,0.338395 4.29948,0.433079 2.18281,0.09468 5.5998,0.410379 7.59331,0.701543 1.99351,0.291164 4.79148,0.830293 6.21771,1.198066 1.42623,0.367772 3.48611,1.110099 4.57752,1.649615 1.60458,0.793195 2.07716,1.170837 2.46918,1.973127 0.48325,0.988984 0.49015,0.992187 2.13849,0.992187 1.6208,0 1.66638,-0.01972 2.29331,-0.992187 z M 256.7909,62.57396 c 0,-2.546615 0.03,-4.630209 0.0667,-4.630209 0.0367,0 1.31636,-0.357187 2.84371,-0.79375 1.52736,-0.436562 2.86656,-0.79375 2.97601,-0.79375 0.10944,0 0.19899,2.364033 0.19899,5.253407 v 5.253407 l -1.78594,0.16867 c -0.98226,0.09277 -2.35148,0.169517 -3.0427,0.170552 l -1.25677,0.0019 z m 0,-17.707198 c 0,-5.544383 -0.031,-5.919022 -0.52633,-6.367316 -0.47783,-0.432426 -0.88622,-0.459232 -4.43177,-0.290899 -2.148,0.101981 -5.21513,0.356442 -6.81586,0.565469 -1.60073,0.209027 -3.05925,0.38101 -3.24115,0.382184 -0.1819,0.0012 -0.33073,-0.175712 -0.33073,-0.39308 0,-0.217369 0.48089,-0.743567 1.06864,-1.16933 0.58774,-0.425763 2.08583,-1.142182 3.32908,-1.592042 1.24325,-0.449861 3.70917,-1.107797 5.47981,-1.46208 1.77064,-0.354283 4.37551,-0.769705 5.78861,-0.923159 1.41309,-0.153454 3.28832,-0.279007 4.16718,-0.279007 h 1.59793 v 7.789593 c 0,5.201082 -0.0932,7.847186 -0.28043,7.962908 -0.15423,0.09532 -1.52345,0.509563 -3.0427,0.920535 l -2.76228,0.747221 z m -29.01582,-1.761184 c -0.60625,-0.423759 -2.02978,-1.141864 -3.16341,-1.595789 -1.13362,-0.453925 -3.25698,-1.113466 -4.71856,-1.465645 -1.46158,-0.352179 -3.01461,-0.729553 -3.45117,-0.838607 l -0.79375,-0.198282 -0.0755,-2.87574 -0.0755,-2.875741 3.11822,0.166978 c 1.71503,0.09184 4.35004,0.355121 5.85559,0.585075 1.50554,0.229953 3.88578,0.709419 5.28941,1.065479 1.40363,0.35606 3.40509,1.052489 4.4477,1.547619 1.0426,0.495131 2.14495,1.149539 2.44965,1.454241 0.31374,0.313743 0.554,0.895029 0.554,1.340361 0,0.730486 -0.1081,0.817266 -1.52135,1.221335 -0.83675,0.239237 -2.3548,0.82859 -3.37344,1.309674 -1.01865,0.481084 -2.20927,1.112031 -2.64584,1.402105 l -0.79375,0.527407 z"
         id="path4" /></g></g></svg>
