<?xml version="1.0" standalone="no"?><!DOCTYPE svg PUBLIC "-//W3C//DTD SVG 1.1//EN" "http://www.w3.org/Graphics/SVG/1.1/DTD/svg11.dtd"><svg t="1753860438235" class="icon" viewBox="0 0 1024 1024" version="1.1" xmlns="http://www.w3.org/2000/svg" p-id="7130" xmlns:xlink="http://www.w3.org/1999/xlink" width="200" height="200"><path d="M927.36 824.96h-0.64c-184.96-312.32-252.16-442.24-284.16-593.28A51.2 51.2 0 0 0 593.28 192H430.72a51.2 51.2 0 0 0-49.28 39.68c-31.36 147.84-97.28 277.76-278.4 593.28H96c-17.92 0-32 14.08-32 32s14.08 32 32 32h831.36c17.92 0 32-14.72 32-32s-14.08-32-32-32zM441.6 256h140.8c5.76 24.96 12.16 49.92 19.84 74.88l-41.6 27.52-29.44-18.56a47.68 47.68 0 0 0-48-2.56L448 355.2l-30.72-10.88c9.6-30.08 17.28-58.88 24.32-88.32z m295.04 568.96c-41.6-56.96-72.32-119.68-79.36-150.4a25.088 25.088 0 0 0-30.08-19.2c-14.08 3.2-22.4 16.64-19.84 30.72 7.04 30.08 30.72 83.84 66.56 138.88H176.64C288 630.4 353.92 507.52 394.88 403.84l38.4 14.08c12.8 4.48 26.24 3.84 38.4-2.56l32.64-17.28 30.08 19.84c7.68 5.12 17.28 7.68 26.24 7.68s17.92-2.56 26.24-8.32l37.12-24.32c42.24 107.52 110.72 231.68 228.48 432h-115.84z" p-id="7131"></path><path d="M362.88 768c-5.76 0-10.88-1.92-16-5.76a25.472 25.472 0 0 1-3.84-35.84c28.8-36.48 44.8-66.56 60.16-95.36l7.04-13.44c6.4-12.8 21.76-17.28 34.56-10.88 12.16 6.4 17.28 22.4 10.88 34.56l-7.04 13.44c-15.36 29.44-33.28 63.36-65.28 103.68-5.12 6.4-12.8 9.6-19.84 9.6z" p-id="7132"></path></svg>